<svg id="Layer_1" data-name="Layer 1" xmlns="http://www.w3.org/2000/svg" viewBox="0 0 512 512"><title>info-information-globe-glyph</title><path id="_9" data-name="9" d="M341.49,344.13S312.78,407.66,265.18,437C245.87,449,229,453.53,216.35,453.53q-16.57,0-26.3-10.07t-9.72-28c0-38.12,45.52-158.73,45.52-164.23,0-6.11-3.79-9.43-10.69-10.15-6.28-.64-11.09.36-22,6-8.37,4.36-29.05,16.16-51.95,51.6,0,0,24.92-62.33,66.26-89.75,29.86-19.81,48.24-21.31,66.5-21.31q15.2,0,23.27,6.41c5.3,4.3,8,10.08,8,17.4,0,8.88-51.93,152-51.93,174.3a17.11,17.11,0,0,0,3.32,10.79c2.2,2.89,4.58,4.36,7.1,4.36C273.85,400.9,312.78,387.55,341.49,344.13ZM331,70.05c-7.82-7.69-17.76-11.57-29.84-11.57q-23.45,0-40.41,17.81t-17,43.29q0,19.24,11.68,31.11t29.29,11.87q22.25,0,40.09-19t17.91-43.83C342.78,87.72,338.84,77.8,331,70.05Zm-8.12,278.61c-15.62,2-32.14,3.3-49.36,3.86-2.38,8.13-4.4,15.39-5.8,21.17,10.34-.23,20.57-.65,30.57-1.41A131.23,131.23,0,0,0,322.92,348.66ZM512,256c0,141.4-114.64,256-256,256S0,397.4,0,256,114.63,0,256,0,512,114.63,512,256Zm-138.11,0a532.61,532.61,0,0,1-6.63,84.74C443.45,322.89,491,288.15,491,256s-47.52-66.87-123.71-84.73A532.41,532.41,0,0,1,373.89,256ZM27,203.27c26-23.88,69.08-43.13,121.86-54.36,11.22-52.8,30.46-95.84,54.35-121.84A235.65,235.65,0,0,0,27,203.27ZM338.84,374.68c19.18-34.27,14.48-59.31,12.47-77.14,1-13.34,1.59-27.19,1.59-41.55a510.36,510.36,0,0,0-7.62-89.25c-7.86-1.38-16-2.61-24.31-3.64A84.67,84.67,0,0,0,333.8,152c2.23-2.42,4.25-4.91,6.16-7.42a6.77,6.77,0,0,1,.76.12,7.74,7.74,0,0,0-.21-.87,73.53,73.53,0,0,0,13.3-30.65q5.24,17,9.28,35.68c52.77,11.23,95.86,30.48,121.81,54.36A235.62,235.62,0,0,0,308.75,27.06,159,159,0,0,1,327.31,52.3a55.42,55.42,0,0,0-26.12-6.08c-1.16,0-2.3.12-3.44.18C284.39,30,270,21,256,21c-32.18,0-66.86,47.52-84.73,123.71a522,522,0,0,1,63.07-6.21,50.8,50.8,0,0,0,12.43,20.76h0a506.26,506.26,0,0,0-80,7.46,503.16,503.16,0,0,0-7.3,74,276,276,0,0,0-20.93,34.82c-.25-6.48-.4-13-.4-19.61a531.28,531.28,0,0,1,6.63-84.73C68.57,189.13,21,223.86,21,256s47.54,66.89,123.71,84.74c-.63-4-1.23-8-1.8-12.1-1.3-9.59,14.5-32,17.53-36a488.68,488.68,0,0,0,6.27,52.62c5,.9,10.23,1.66,15.44,2.43-2.07,7-4,13.81-5.67,20.32-1.72-.27-3.5-.46-5.22-.74.85,3.68,1.78,7.2,2.72,10.73-3.68,15.24-5.94,28.28-5.94,37.52a63.73,63.73,0,0,0,1.67,14.78,361.25,361.25,0,0,1-20.83-67.2C96.1,351.86,53,332.64,27,308.73A235.71,235.71,0,0,0,203.26,484.95c-9-9.74-17.29-21.94-24.77-36.14a38,38,0,0,0,2.74,3.19c8.44,8.7,19.59,13.28,33.09,13.7C227.65,482,242.06,491,256,491,287.09,491,320.51,446.47,338.84,374.68Zm146.07-65.95c-26,23.91-69,43.16-121.81,54.36-11.22,52.8-30.48,95.87-54.34,121.85A235.6,235.6,0,0,0,484.91,308.73Z" fill="#231f20"/></svg>